<?xml version="1.0" standalone="no"?>
<!DOCTYPE svg PUBLIC "-//W3C//DTD SVG 20010904//EN"
 "http://www.w3.org/TR/2001/REC-SVG-20010904/DTD/svg10.dtd">
<svg version="1.0" xmlns="http://www.w3.org/2000/svg"
 width="683.000000pt" height="683.000000pt" viewBox="0 0 683.000000 683.000000"
 preserveAspectRatio="xMidYMid meet">
<metadata>
Created by potrace 1.11, written by Peter Selinger 2001-2013
</metadata>
<g transform="translate(0.000000,683.000000) scale(0.100000,-0.100000)"
fill="#000000" stroke="none">
<path d="M2245 5599 c-292 -21 -546 -139 -755 -349 -231 -231 -352 -522 -352
-846 0 -167 27 -301 94 -468 l41 -99 -30 -23 c-35 -27 -128 -147 -168 -216
l-27 -48 -118 0 c-110 0 -119 -1 -125 -20 -3 -11 -12 -20 -20 -20 -7 0 -16
-10 -19 -22 -9 -32 -47 -197 -52 -228 -3 -14 -13 -61 -23 -105 l-18 -80 -11
70 c-7 39 -23 141 -37 229 -14 87 -28 162 -31 167 -3 5 -66 9 -141 9 -130 0
-135 -1 -130 -20 4 -16 0 -20 -19 -20 -13 0 -24 -3 -24 -7 0 -7 19 -89 130
-548 17 -71 38 -159 46 -195 9 -36 20 -79 25 -95 l9 -30 131 0 c123 0 132 1
139 20 4 11 13 20 21 20 9 0 20 27 31 75 32 132 70 305 71 318 1 34 16 -15 41
-133 15 -71 31 -143 36 -160 5 -16 14 -55 20 -86 l11 -56 79 2 79 2 83 -82
c121 -118 265 -196 435 -237 33 -8 289 -13 794 -17 l745 -6 -107 -255 c-58
-140 -105 -256 -104 -258 2 -2 257 35 293 43 12 3 22 4 22 2 0 -2 -43 -131
-95 -287 -52 -156 -93 -285 -91 -287 1 -1 49 65 107 148 57 82 120 172 139
199 19 27 69 97 110 156 41 60 101 146 134 192 l58 84 -63 -6 c-35 -3 -100 -8
-144 -11 -44 -3 -99 -8 -122 -10 l-43 -6 101 151 100 150 742 1 c408 1 762 3
786 5 174 15 389 128 498 263 26 33 53 60 58 60 6 1 15 11 20 24 6 12 17 21
27 19 12 -2 18 12 28 65 6 38 20 101 32 141 37 136 30 308 -18 446 -17 50 -24
91 -24 148 l0 78 -47 0 c-46 0 -51 3 -112 65 -35 36 -96 85 -135 110 -73 45
-191 95 -226 95 -17 0 -20 7 -21 48 -1 129 -35 313 -80 438 -163 448 -536 777
-1009 889 -82 19 -179 29 -300 29 -133 1 -210 -8 -334 -39 l-109 -27 -81 81
c-85 85 -158 145 -216 180 -237 141 -471 199 -735 180z"/>
<path d="M5785 3540 c-3 -5 -3 -14 0 -20 4 -6 -6 -10 -22 -10 l-29 0 0 -435
c0 -239 3 -436 6 -436 3 -1 59 -2 125 -3 113 -1 120 0 126 19 3 13 13 20 27
19 22 -1 22 1 22 142 l0 144 44 0 c99 0 112 -21 119 -186 2 -61 8 -117 13
-125 7 -11 37 -14 132 -15 119 0 122 1 122 22 0 18 5 22 24 20 l25 -3 -5 86
c-10 190 -13 220 -27 252 -8 19 -27 47 -42 62 l-28 28 36 33 c85 78 98 209 31
307 -26 38 -86 77 -148 96 -50 15 -542 18 -551 3z m395 -238 c20 -15 25 -28
25 -63 l0 -44 -82 -3 -83 -3 0 64 c0 35 2 66 5 69 12 12 111 -3 135 -20z"/>
</g>
</svg>
